<svg xmlns="http://www.w3.org/2000/svg" xmlns:xlink="http://www.w3.org/1999/xlink" width="190" height="55" viewBox="0 0 190 55"><defs><path id="a" d="M.06.072h22.746v22.73H.06z"></path><path id="c" d="M0 22.803h160.16V.072H0z"></path></defs><g fill="none" fill-rule="evenodd"><path fill="#F20117" d="M0 55h190V0H0z"></path><path fill="#FFF" d="M44.914 27.474l7.04 10.202H44.62l-3.678-5.744h-.636l-3.677 5.744h-7.333l7.092-10.202v-.34l-2.995-4.288H21.623v2.776H31.1l-.802 1.06-2.877 3.813h-5.798v7.18h-6.747V17.225h21.853l3.578 5.476h.636l3.578-5.476h7.262l-6.869 9.91z"></path><g transform="translate(14.498 16.084)"><g transform="translate(36.169)"><mask id="b" fill="#fff"><use xlink:href="#a"></use></mask><path fill="#FFF" d="M22.806 11.437c0 1.052-.145 2.086-.427 3.076-1.362 4.88-5.863 8.29-10.945 8.29-2.13 0-4.207-.593-6.009-1.715a11.305 11.305 0 0 1-5.364-9.651C.06 5.17 5.163.072 11.434.072c2.825 0 5.534 1.04 7.629 2.931l.309.278-1.014 1.347-1.453 1.919-.172.232-.877 1.167-.154.204-.187-.204-.186-.202a5.307 5.307 0 0 0-3.895-1.705 5.333 5.333 0 0 0-5.328 5.327 5.308 5.308 0 0 0 2.92 4.75c.736.377 1.568.577 2.408.577a5.29 5.29 0 0 0 4.035-1.85l.337-.456H9.851l.641-.85 2.118-2.803.777-1.031.077-.102.112-.15h9.051l.001.005c.118.639.178 1.305.178 1.98" mask="url(#b)"></path></g><mask id="d" fill="#fff"><use xlink:href="#c"></use></mask><path fill="#FFF" d="M60.682 21.592h6.747V1.14h-6.747zM78.208 14.387l2.305-6.918h1.169l2.308 6.918h-5.782zM85.826 1.14h-9.453l-7.529 20.452h6.968l.797-2.393h8.977l.796 2.393h6.97L85.826 1.14zM109.855 1.14h6.578v20.452h-7.577l-6.968-11.055h-.609v11.055h-6.577V1.14h7.747l6.799 11.056h.607zM117.755 1.14h21.464v5.622h-7.357v14.83h-6.746V6.762h-7.36zM160.16 15.627c0 4.458-3.455 6.672-10.47 6.65-7.069-.03-10.403-2.22-10.232-7.526h6.064c.074 1.39 1.244 2.238 4.167 2.265 2.579.024 3.773-.706 3.773-1.658 0-.655-.364-1.338-2.363-1.63l-2.631-.415c-3.871-.631-8.524-1.094-8.524-6.33 0-4.043 3.29-6.527 9.792-6.527 5.87 0 9.963 1.63 9.84 7.475h-6.016c-.24-1.363-1.387-2.216-3.97-2.216-2.24 0-3.169.685-3.169 1.608 0 .585.368 1.292 1.929 1.536l2.164.362c4.07.684 9.647.808 9.647 6.406" mask="url(#d)"></path></g></g></svg>